<?xml version="1.0" encoding="utf-8"?>
<!-- Generator: Adobe Illustrator 20.1.0, SVG Export Plug-In . SVG Version: 6.00 Build 0)  -->
<svg version="1.1" id="Layer_1" xmlns="http://www.w3.org/2000/svg" xmlns:xlink="http://www.w3.org/1999/xlink" x="0px" y="0px"
	 viewBox="0 0 335.1 118" style="enable-background:new 0 0 335.1 118;" xml:space="preserve">
<style type="text/css">
	.st0{fill:#FF0024;}
	.st1{fill:#0690CF;}
	.st2{fill:#231F20;}
	.st3{fill:#353535;}
</style>
<g id="Layer_1_1_">
</g>
<rect x="1.6" y="53.2" class="st0" width="15" height="32.2"/>
<g>
	<path class="st1" d="M234.1,17.9c-22.5,22-22.8,57.9-0.9,80.4l40.7-39.8L234.1,17.9z"/>
	<path class="st2" d="M276.7,58.4l-41.7,40.9c22.6,23,59.4,23.4,82.5,0.8s23.4-59.5,0.9-82.5C295.9-5.5,259-5.8,236,16.6L276.7,58.4
		L276.7,58.4z"/>
</g>
<path class="st3" d="M11.5,43.6h-9V7.7L1.6,1.2h9.1v19.5l10.2-15l2-4.5h10.6L18.7,21.3l15.8,22.4h-10L10.8,22.9v15.2L11.5,43.6z"/>
<path class="st3" d="M45.2,7.8l-0.9-6.5h9.1v36h16.2L68,43.7H45.1L45.2,7.8L45.2,7.8z"/>
<path class="st3" d="M90.3,1.7l5.4-1.3l13,35.4l3.6,7.9h-9.2l-3.6-9.8h-14l-3.7,9.8h-7.6L90.3,1.7z M87.4,27.3h10.2L93.2,15
	l-0.6-2.5L92,15L87.4,27.3z"/>
<path class="st3" d="M145.5,43.6l-10.5-15h-3.2v9.5l0.7,5.5h-9V7.7l-0.9-6.5h13.1c7.6,0,15,4.2,15,13.2c0,4.7-3.2,10-8,12.4
	l13.1,16.8H145.5L145.5,43.6z M134.6,22.6c4,0,7.6-3.7,7.6-8.2c0-4.8-3.6-7.4-7.6-7.4h-2.9v15.6H134.6z"/>
<path class="st3" d="M175.9,43.6h-9V7.7L166,1.2h9.1v19.5l10.2-15l2-4.5h10.6l-14.8,20.1l15.8,22.4h-10.2l-13.5-20.8v15.2
	L175.9,43.6z"/>
<path class="st3" d="M30,57.9c3.8,0,7.5,2.2,7.5,6.9c0,4-3.7,7.5-8.7,7.5h-1.7v6l0.3,2.6h-3.5V61.2L23.4,58L30,57.9L30,57.9z
	 M29.4,69.7c2.6,0,4.8-1.9,4.8-4.9c0-2.9-2.3-4.3-4.8-4.3h-2.3v9.2L29.4,69.7L29.4,69.7z"/>
<path class="st3" d="M58,80.9l-6.1-8.6c-0.4,0-0.9,0-2.9,0v6l0.3,2.6h-3.5V61.2L45.3,58h6.5c3.8,0,7.5,2.2,7.5,6.9
	c0,2.7-1.7,5.3-4.5,6.6l7.1,9.5L58,80.9L58,80.9z M51.2,69.7c2.6,0,4.8-2.2,4.8-4.9c0-2.9-2.3-4.3-4.8-4.3h-2.3v9.2L51.2,69.7
	L51.2,69.7z"/>
<path class="st3" d="M87.3,69.2c0,6.8-4.6,12.1-10.5,12.1c-6.4,0-10-5.3-10-11.7c0-6.7,4.5-12.1,10.5-12.1
	C84,57.5,87.3,62.5,87.3,69.2z M77.1,78.8c4.1,0,6.8-4.2,6.8-9.4S81.2,60,77.1,60c-4.1,0-6.9,4.2-6.9,9.4S73,78.8,77.1,78.8z"/>
<path class="st3" d="M101.6,57.9c3.8,0,7.5,2.2,7.5,6.9c0,4-3.7,7.5-8.7,7.5h-1.7v6l0.3,2.6h-3.5V61.2L95,58L101.6,57.9L101.6,57.9z
	 M101,69.7c2.6,0,4.8-1.9,4.8-4.9c0-2.9-2.3-4.3-4.8-4.3h-2.3v9.2L101,69.7L101,69.7z"/>
<path class="st3" d="M135.6,69.2c0,6.8-4.6,12.1-10.5,12.1c-6.4,0-10-5.3-10-11.7c0-6.7,4.5-12.1,10.5-12.1
	C132.3,57.5,135.6,62.5,135.6,69.2z M125.4,78.8c4.1,0,6.8-4.2,6.8-9.4s-2.7-9.4-6.8-9.4c-4.1,0-6.9,4.2-6.9,9.4
	S121.3,78.8,125.4,78.8z"/>
<path class="st3" d="M142.2,75.7c0,0,2.5,3.1,6,3.1c2,0,3.7-1.4,3.7-3.8c0-4.6-10-4.8-10-10.9c0-3.6,2.8-6.6,6.7-6.6
	c2.8,0,4.7,1,5.8,1.6l-0.9,2.5c-0.1-0.2-2.3-1.7-4.9-1.7c-1.6,0-3.3,1.1-3.3,3.1c0,5,9.8,4.6,9.8,11.4c0,3.9-2.7,6.8-6.9,6.8
	c-4.1,0-6.2-2.6-6.2-2.6C141.9,78.7,142.2,75.7,142.2,75.7z"/>
<path class="st3" d="M168.3,57.9l2.1-0.5l7.1,19.5l1.7,3.8h-3.7l-2.2-6h-8.5l-2.3,6h-3L168.3,57.9z M165.7,72.2h6.7l-2.9-8l-0.4-1.4
	l-0.4,1.4L165.7,72.2z"/>
<path class="st3" d="M186.1,61.1l-0.5-3.2h3.6v20.3h9l-0.7,2.7h-11.4V61.1z"/>
<path class="st3" d="M0.2,110.1c0,0,2,2.4,4.8,2.4c1.6,0,3-1.1,3-3c0-3.7-8-3.8-8-8.7c0-2.9,2.2-5.2,5.4-5.2c2.2,0,3.8,0.8,4.6,1.3
	l-0.7,2c-0.1-0.1-1.8-1.4-4-1.4c-1.3,0-2.7,0.9-2.7,2.5c0,4,7.9,3.7,7.9,9.1c0,3.1-2.1,5.4-5.5,5.4c-3.3,0-5-2.1-5-2.1
	C0,112.4,0.2,110.1,0.2,110.1z"/>
<path class="st3" d="M30.7,104.8c0,5.4-3.6,9.7-8.4,9.7c-5.1,0-8-4.2-8-9.4c0-5.4,3.6-9.7,8.4-9.7C28,95.5,30.7,99.5,30.7,104.8z
	 M22.5,112.5c3.3,0,5.5-3.4,5.5-7.5s-2.2-7.5-5.5-7.5S17,100.9,17,105S19.2,112.5,22.5,112.5z"/>
<path class="st3" d="M34.9,95.8h9.5v2.1h-6.7v5.8h5.8l-0.6,2.1h-5.3v6.3l0.3,2.1h-2.8V98.4L34.9,95.8z"/>
<path class="st3" d="M47.9,95.8h14.4v2.1h-6V112l0.3,2.1h-2.8V97.9H48v-2.1H47.9z"/>
<path class="st3" d="M83.1,114.5l-1.7-0.4l-3.3-9.1l-0.5-1.7l-0.5,1.8l-3.6,9.4l-1.6-0.4l-5.5-15.3l-1.6-3.1h3.3l4.4,12.2l0.6,2.3
	l0.7-2.3l2.8-7.3l-1.9-4.9h2.9l4.4,12.2l0.6,2.3l0.7-2.3l4.6-12.2h2.5L83.1,114.5z"/>
<path class="st3" d="M97.6,95.8l1.7-0.4L105,111l1.4,3.1h-3l-1.8-4.8h-6.8l-1.8,4.8h-2.5L97.6,95.8z M95.5,107.2h5.4l-2.3-6.4
	l-0.3-1.1l-0.3,1.1L95.5,107.2z"/>
<path class="st3" d="M121.5,114.1l-4.9-6.9c-0.3,0-0.7,0-2.3,0v4.8l0.3,2.1h-2.8V98.3l-0.4-2.6h5.2c3.1,0,6,1.8,6,5.5
	c0,2.2-1.4,4.2-3.6,5.2l5.7,7.6L121.5,114.1L121.5,114.1z M116.1,105.2c2.1,0,3.9-1.8,3.9-3.9c0-2.3-1.8-3.5-3.9-3.5h-1.8v7.4H116.1
	L116.1,105.2z"/>
<path class="st3" d="M130.4,98.4l-0.4-2.6h9.5v2.1h-6.7v5.8h5.8l-0.6,2.1h-5.3v6.3h7l-0.6,2.1h-8.9L130.4,98.4L130.4,98.4z"/>
<path class="st3" d="M143.1,117.1c0.6-0.6,1.6-1.9,1.6-2.8c0-0.7-0.3-1-1-1.3c0-0.1,0-0.2,0-0.3c0-1,0.7-1.8,1.7-1.8
	c0.9,0,1.7,0.6,1.7,2s-0.9,3.7-2.9,5.1L143.1,117.1z"/>
<path class="st3" d="M158.6,112.1l0.3,2.1h-2.8V98.4l-0.4-2.6h2.9V112.1L158.6,112.1z"/>
<path class="st3" d="M179,112.1l0.2,2.1h-1.3l-10.4-11.7l-1.2-1.8v11.4l0.3,2.1H164V98.4l-0.4-2.6h1.7l10.2,11.6l1.2,1.8V98.4
	l-0.4-2.6h2.6L179,112.1L179,112.1z"/>
<path class="st3" d="M196.7,99.7c-1.3-1.4-2.8-2.1-4.7-2.1c-3.6,0-6.1,3.7-6.1,7.5c0,4.5,3.1,7.3,6.3,7.3c2.5,0,5.4-2.3,5.4-2.3
	l0.6,2.1c0,0-2.7,2.4-6.5,2.4c-4.3,0-8.5-3.2-8.5-9.1c0-5.7,4-9.9,8.9-9.9c2.3,0,4.2,0.8,5.8,2.3L196.7,99.7z"/>
</svg>
